# xmcd CD database file
#
# Track frame offsets:
#	150
#	11945
#	27370
#	40667
#	58177
#	74835
#	91250
#	104140
#	117705
#	132177
#
# Disc length: 1927 seconds
#
# Revision: 3
# Processed by: cddbd v1.4PL0 Copyright (c) Steve Scherf et al.
# Submitted via: CDex 1.50
#
DISCID=9807850a
DTITLE=Emilio - It's On The House
DYEAR=1997
DGENRE=Country
TTITLE0=I'd Love You To Love Me
TTITLE1=Somebody's Everything
TTITLE2=The Bottom Of Your Heart
TTITLE3=Forever Seventeen
TTITLE4=She Gives
TTITLE5=She Loves Me, She Loves Me Not
TTITLE6=Take It From Someone Who Knows
TTITLE7=A Doll Like You
TTITLE8=Somebody Stop Me
TTITLE9=Stuck On Your Love
EXTD=YEAR: 1997
EXTT0=
EXTT1=
EXTT2=
EXTT3=
EXTT4=
EXTT5=
EXTT6=
EXTT7=
EXTT8=
EXTT9=
PLAYORDER=
